<?xml version="1.0" encoding="utf-8"?>
<!-- Generator: Adobe Illustrator 17.1.0, SVG Export Plug-In . SVG Version: 6.00 Build 0)  -->
<!DOCTYPE svg PUBLIC "-//W3C//DTD SVG 1.0//EN" "http://www.w3.org/TR/2001/REC-SVG-20010904/DTD/svg10.dtd">
<svg version="1.0" id="Layer_1" xmlns="http://www.w3.org/2000/svg" xmlns:xlink="http://www.w3.org/1999/xlink" x="0px" y="0px"
	 width="700px" height="100px" viewBox="-615.2 30.9 700 100" enable-background="new -615.2 30.9 700 100" xml:space="preserve">
<g>
	<path id="path14777_3_" fill="#FFFFFF" d="M-402.4,48.7v1.1l3.2,0.3l6,7.3l0.2,3.8c-0.1,0.6-0.7,0.4-1.1,0.5h-2.2l0.1,1l10-0.1v-1
		h-3c-0.4,0-0.4-0.2-0.4-0.5l-0.2-3.6c0-0.3,0.1-0.6,0.5-0.9l5.8-4.6l2.7-0.5l0.4-0.8h-9l0.1,0.9l2.6,0.2c0.1,0.2,0.4,0.1,0.1,0.7
		l-3.8,3.3c-0.2,0.1-0.4,0-0.5,0l-4.2-5.5c-0.3-0.5,0-0.5,0.4-0.5l2.7-0.1v-1L-402.4,48.7L-402.4,48.7z"/>
	<path id="path14779_3_" fill="#FFFFFF" d="M-383.9,60.9l1.2,0.8l-0.8,1.4l-1.2-0.8L-383.9,60.9L-383.9,60.9z"/>
	<path id="path14781_3_" fill="#FFFFFF" d="M-383.3,59.6l1,0.6l4.2-6.9l-2.4-1.3L-383.3,59.6z"/>
</g>
<g id="google-plus-icon_2_">
	<path fill="#FFFFFF" d="M-481.1,50.8h-2.4v2.4h-1.2v-2.4h-2.4v-1.2h2.4v-2.4h1.2v2.4h2.4C-481.1,49.6-481.1,50.8-481.1,50.8z
		 M-487.9,60.8c0,1.8-1.6,4-5.8,4c-3.1,0-5.6-1.3-5.6-3.5c0-1.7,1.1-3.9,6.1-3.9c-0.8-0.6-1-1.4-0.5-2.4c-2.9,0-4.4-1.8-4.4-4
		c0-2.1,1.6-4.1,4.9-4.1c0.8,0,5.2,0,5.2,0l-1.2,1.2h-1.3c0.9,0.5,1.5,1.7,1.5,3c0,1.1-0.7,2.1-1.6,2.8c-1.6,1.2-1.2,2,0.5,3.2
		C-488.5,58.4-487.9,59.3-487.9,60.8z M-491.2,51.2c-0.2-1.9-1.5-3.4-2.9-3.4s-2.4,1.4-2.1,3.2c0.2,1.9,1.6,3.2,3,3.2
		C-491.8,54.3-491,53.1-491.2,51.2z M-489.8,61c0-1.5-1.4-3-3.7-3c-2.1,0-3.9,1.4-3.9,2.9c0,1.6,1.5,3,3.6,3
		C-491.1,63.8-489.8,62.6-489.8,61z"/>
</g>
<path fill="#FFFFFF" d="M-581.4,50.4c-0.7,0.3-1.4,0.5-2,0.5c0.8-0.5,1.3-1.1,1.6-2c-0.7,0.4-1.5,0.7-2.3,0.9
	c-0.7-0.7-1.6-1.2-2.7-1.2c-2,0-3.6,1.6-3.6,3.6c0,0.3,0,0.5,0.1,0.8c-3-0.2-5.6-1.6-7.5-3.8c-0.3,0.5-0.5,1.1-0.5,1.8
	c0,1.2,0.7,2.3,1.6,3c-0.6,0-1.2-0.2-1.7-0.5v0c0,1.8,1.2,3.2,2.9,3.5c-0.3,0.1-0.6,0.2-1,0.2c-0.2,0-0.5,0-0.7,0
	c0.5,1.5,1.8,2.5,3.4,2.5c-1.2,1-2.8,1.5-4.5,1.5c-0.3,0-0.6,0-0.9,0c1.6,1,3.5,1.6,5.5,1.6c6.7,0,10.2-5.5,10.2-10.2
	c0-0.1,0-0.3,0-0.5C-582.5,51.8-581.9,51.1-581.4,50.4z"/>
<path id="linkedin-icon_2_" fill="#FFFFFF" d="M-444.8,49.1c0,1.2-1,2.2-2.2,2.2c-1.2,0-2.2-1-2.2-2.2s1-2.2,2.2-2.2
	C-445.8,46.9-444.8,47.9-444.8,49.1z M-445.1,52.9h-3.7v11.9h3.7V52.9z M-439.2,52.9h-3.5v11.9h3.5c0,0,0-4.4,0-6.2
	c0-1.7,0.8-2.6,2.2-2.6c1.4,0,2,0.9,2,2.6s0,6.2,0,6.2h3.6c0,0,0-4.3,0-7.5s-1.8-4.8-4.4-4.8c-2.5,0-3.6,2-3.6,2L-439.2,52.9
	L-439.2,52.9z"/>
<path id="email-icon_3_" fill="#FFFFFF" d="M-343.9,55.1l-5.2-4v9.2L-343.9,55.1z M-331.3,49.3h-17.8l8.9,6.8L-331.3,49.3z
	 M-337.7,56.1l-2.5,1.9l-2.5-1.9l-6.4,6.4h17.8L-337.7,56.1z M-336.5,55.1l5.2,5.2v-9.2L-336.5,55.1z"/>
<path id="link-icon_2_" fill="#FFFFFF" d="M-294,53.8c0.3-0.3,0.6-0.5,1-0.7c1.9-1,4.2-0.5,5.5,1.3l-1.5,1.5c-0.4-1-1.5-1.5-2.5-1.2
	c-0.4,0.1-0.8,0.3-1,0.6l-2.8,2.8c-0.9,0.9-0.9,2.2,0,3s2.2,0.9,3,0l0.9-0.8c0.8,0.3,1.6,0.5,2.5,0.3l-1.9,1.9
	c-1.6,1.6-4.2,1.6-5.9,0c-1.6-1.6-1.6-4.2,0-5.9L-294,53.8z M-289.6,49.4l-1.9,1.9c0.8,0,1.6,0,2.5,0.3l0.9-0.8c0.9-0.9,2.2-0.9,3,0
	c0.9,0.8,0.9,2.2,0,3l-2.8,2.8c-0.9,0.9-2.2,0.9-3,0c-0.2-0.2-0.4-0.5-0.5-0.7l-1.5,1.4c0.1,0.2,0.3,0.5,0.5,0.7
	c0.5,0.5,1.2,0.9,2,1.1c1,0.2,2,0.1,3-0.4c0.4-0.2,0.6-0.4,1-0.7l2.8-2.8c1.6-1.6,1.6-4.2,0-5.8C-285.3,47.7-287.9,47.7-289.6,49.4z
	"/>
<path id="printer-3-icon_2_" fill="#FFFFFF" d="M-247.4,51.8v7h1.9c0,0,0,0,0,0.5c0,0.6,0.4,1,0.8,1.5c0.4,0.5,0.6,0.8,1,1.1
	c0.5,0.5,0.9,1,1.8,1c0.7,0,0.4,0,6.9,0v-4.2h1.9v-7h-1.9v-3h-10.6v3H-247.4z M-242.1,59.6c0,0-2,0.4-2-0.7c0-0.3,0-1,0-1.8h7.8v4.5
	c-1.9,0-4.6,0-5.1,0C-242.6,61.6-242.1,59.6-242.1,59.6z M-236.3,51.8h-7.8v-1.7h7.8V51.8z"/>
<g>
	<polygon fill="#FFFFFF" points="-193.4,63.9 -195.1,62.2 -188.8,55.9 -195.1,49.6 -193.4,47.9 -185.4,55.9 	"/>
</g>
<g>
	<polygon fill="#FFFFFF" points="-137.1,47.9 -135.4,49.6 -141.7,55.9 -135.4,62.2 -137.1,63.9 -145.1,55.9 	"/>
</g>
<path fill="#FFFFFF" d="M-46.2,48.5v16.3h3.6v-3.9l1.7-2l2.6,6h4l-4-8.9l3.5-4.1h-4.2l-3.7,4.2v-9H-43L-46.2,48.5z"/>
<path fill="#FFFFFF" d="M-83.2,48.4h-14c-0.8,0-1.4,0.7-1.4,1.4v5.1c0,4.6,3.7,8.4,8.4,8.4s8.4-3.8,8.4-8.4v-5.1
	C-81.8,49.1-82.5,48.4-83.2,48.4z M-85.4,54.6l-4,3.9c-0.2,0.2-0.5,0.3-0.8,0.3s-0.5-0.1-0.8-0.3l-4-3.8c-0.2-0.2-0.3-0.5-0.3-0.8
	s0.1-0.5,0.3-0.8L-95,53c0.4-0.4,1-0.4,1.5,0l3.2,3L-87,53c0.4-0.4,1.1-0.4,1.5,0l0.1,0.1c0.2,0.2,0.3,0.5,0.3,0.8
	C-85.1,54.1-85.2,54.4-85.4,54.6z"/>
<rect x="0.7" y="47" fill="#F7F8F8" width="6" height="17.8"/>
<rect x="6.7" y="47" fill="#E6D3D3" width="11.9" height="5.9"/>
<rect x="6.7" y="52.9" fill="#DFBABA" width="6" height="5.9"/>
<g>
	<path fill="#FFFFFF" d="M59.8,45.2c-5.9,0-10.7,4.8-10.7,10.7c0,4.4,2.7,8.1,6.4,9.8c0-0.8,0-1.7,0.2-2.5c0.2-0.9,1.4-5.9,1.4-5.9
		s-0.3-0.7-0.3-1.7c0-1.6,0.9-2.8,2-2.8c1,0,1.5,0.8,1.5,1.6c0,1-0.6,2.5-1,3.8c-0.2,1.1,0.5,2,1.7,2c2,0,3.4-2.6,3.4-5.7
		c0-2.3-1.6-4.1-4.5-4.1c-3.2,0-5.2,2.4-5.2,5.1c0,1,0.3,1.6,0.7,2.1c0.2,0.2,0.2,0.4,0.2,0.6c0,0.2-0.2,0.6-0.2,0.8
		c0,0.2-0.3,0.4-0.5,0.2c-1.5-0.6-2.2-2.2-2.2-4.1c0-3,2.5-6.7,7.7-6.7c4.1,0,6.8,3,6.8,6.2c0,4.2-2.3,7.3-5.8,7.3
		c-1.2,0-2.2-0.6-2.6-1.4c0,0-0.6,2.5-0.8,3c-0.2,0.8-0.7,1.7-1.1,2.3c1,0.3,2,0.5,3,0.5c5.9,0,10.7-4.8,10.7-10.7
		S65.7,45.2,59.8,45.2z"/>
</g>
<g>
	<path id="path14777_1_" d="M-402.4,98.7v1.1l3.2,0.3l6,7.3l0.2,3.8c-0.1,0.7-0.7,0.4-1.1,0.6h-2.2l0.1,0.9l10-0.1v-0.9h-3
		c-0.4,0.1-0.4-0.2-0.4-0.4l-0.2-3.6c0-0.3,0.1-0.6,0.5-0.8l5.8-4.6l2.7-0.5l0.4-0.8h-9l0.1,0.9l2.6,0.2c0.1,0.2,0.4,0.1,0.1,0.7
		l-3.8,3.3c-0.2,0.1-0.4,0.1-0.5-0.1l-4.2-5.5c-0.3-0.4,0-0.5,0.4-0.6l2.7-0.2v-0.9L-402.4,98.7L-402.4,98.7z"/>
	<path id="path14779_1_" d="M-383.9,110.9l1.2,0.8l-0.8,1.4l-1.2-0.8L-383.9,110.9L-383.9,110.9z"/>
	<path id="path14781_1_" d="M-383.3,109.6l1,0.7l4.2-6.9l-2.4-1.3L-383.3,109.6z"/>
</g>
<g id="google-plus-icon_1_">
	<path d="M-481.1,100.8h-2.4v2.4h-1.2v-2.4h-2.4v-1.2h2.4v-2.4h1.2v2.4h2.4C-481.1,99.6-481.1,100.8-481.1,100.8z M-487.9,110.8
		c0,1.8-1.6,4-5.8,4c-3.1,0-5.6-1.3-5.6-3.5c0-1.7,1.1-3.9,6.1-3.9c-0.8-0.6-1-1.4-0.5-2.4c-2.9,0-4.4-1.8-4.4-3.9
		c0-2.2,1.6-4.1,4.9-4.1c0.8,0,5.2,0,5.2,0l-1.2,1.2h-1.3c0.9,0.6,1.5,1.7,1.5,2.9c0,1.2-0.7,2.1-1.6,2.8c-1.6,1.2-1.2,1.9,0.5,3.2
		C-488.5,108.4-487.9,109.3-487.9,110.8z M-491.2,101.2c-0.2-1.8-1.5-3.3-2.9-3.4s-2.4,1.4-2.1,3.2s1.6,3.2,3,3.2
		C-491.8,104.3-491,103.1-491.2,101.2z M-489.8,111c0-1.5-1.4-2.9-3.7-2.9c-2.1,0-3.9,1.3-3.9,2.9c0,1.6,1.5,2.9,3.6,2.9
		C-491.1,113.8-489.8,112.6-489.8,111z"/>
</g>
<path d="M-581.4,100.4c-0.7,0.3-1.4,0.5-2,0.6c0.8-0.4,1.3-1.2,1.6-2c-0.7,0.4-1.5,0.7-2.3,0.9c-0.7-0.7-1.6-1.2-2.7-1.2
	c-2,0-3.6,1.6-3.6,3.6c0,0.3,0,0.6,0.1,0.8c-3-0.2-5.6-1.6-7.5-3.8c-0.3,0.6-0.5,1.2-0.5,1.8c0,1.2,0.7,2.3,1.6,3
	c-0.6,0-1.2-0.2-1.7-0.4v0.1c0,1.8,1.2,3.2,2.9,3.5c-0.3,0.1-0.6,0.2-1,0.2c-0.2,0-0.5,0-0.7-0.1c0.5,1.4,1.8,2.5,3.4,2.5
	c-1.2,0.9-2.8,1.6-4.5,1.6c-0.3,0-0.6,0-0.9-0.1c1.6,1.1,3.5,1.6,5.5,1.6c6.7,0,10.2-5.5,10.2-10.2c0-0.2,0-0.3,0-0.4
	C-582.5,101.8-581.9,101.1-581.4,100.4z"/>
<path id="linkedin-icon_1_" d="M-444.8,99.1c0,1.2-1,2.2-2.2,2.2c-1.2,0-2.2-1-2.2-2.2s1-2.2,2.2-2.2
	C-445.8,96.9-444.8,97.9-444.8,99.1z M-445.1,102.9h-3.7v11.9h3.7V102.9z M-439.2,102.9h-3.5v11.9h3.5c0,0,0-4.4,0-6.2
	c0-1.7,0.8-2.7,2.2-2.7c1.4,0,2,0.9,2,2.7c0,1.7,0,6.2,0,6.2h3.6c0,0,0-4.3,0-7.6c0-3.2-1.8-4.7-4.4-4.7c-2.5,0-3.6,1.9-3.6,1.9
	L-439.2,102.9L-439.2,102.9z"/>
<path id="email-icon_1_" d="M-343.9,105.1l-5.2-4v9.2L-343.9,105.1z M-331.3,99.3h-17.8l8.9,6.8L-331.3,99.3z M-337.7,106.1
	l-2.5,1.9l-2.5-1.9l-6.4,6.4h17.8L-337.7,106.1z M-336.5,105.1l5.2,5.2v-9.2L-336.5,105.1z"/>
<path id="link-icon_1_" d="M-294,103.8c0.3-0.3,0.6-0.5,1-0.7c1.9-1.1,4.2-0.5,5.5,1.3l-1.5,1.4c-0.4-0.9-1.5-1.5-2.5-1.2
	c-0.4,0.1-0.8,0.3-1,0.6l-2.8,2.8c-0.9,0.8-0.9,2.2,0,3.1c0.9,0.8,2.2,0.8,3,0l0.9-0.8c0.8,0.3,1.6,0.4,2.5,0.3l-1.9,1.9
	c-1.6,1.6-4.2,1.6-5.9,0s-1.6-4.2,0-5.8L-294,103.8z M-289.6,99.4l-1.9,1.9c0.8-0.1,1.6,0.1,2.5,0.3l0.9-0.8c0.9-0.8,2.2-0.8,3,0
	c0.9,0.8,0.9,2.2,0,3.1l-2.8,2.8c-0.9,0.8-2.2,0.8-3,0c-0.2-0.2-0.4-0.4-0.5-0.7l-1.5,1.4c0.1,0.2,0.3,0.4,0.5,0.7
	c0.5,0.5,1.2,0.9,2,1.1c1,0.2,2,0.1,3-0.4c0.4-0.2,0.6-0.4,1-0.7l2.8-2.8c1.6-1.6,1.6-4.2,0-5.8C-285.3,97.7-287.9,97.7-289.6,99.4z
	"/>
<path id="printer-3-icon_1_" d="M-247.4,101.8v7h1.9c0,0,0,0,0,0.6c0,0.7,0.4,1.1,0.8,1.6c0.4,0.4,0.6,0.8,1,1.1
	c0.5,0.5,0.9,1,1.8,1c0.7,0,0.4,0,6.9,0v-4.2h1.9v-7h-1.9v-3.1h-10.6v3.1C-245.6,101.8-247.4,101.8-247.4,101.8z M-242.1,109.6
	c0,0-2,0.4-2-0.7c0-0.3,0-0.9,0-1.8h7.8v4.4c-1.9,0-4.6,0-5.1,0C-242.6,111.6-242.1,109.6-242.1,109.6z M-236.3,101.8h-7.8v-1.7h7.8
	V101.8z"/>
<g>
	<polygon points="-193.4,113.9 -195.1,112.2 -188.8,105.9 -195.1,99.6 -193.4,97.9 -185.4,105.9 	"/>
</g>
<g>
	<polygon points="-137.1,97.9 -135.4,99.6 -141.7,105.9 -135.4,112.2 -137.1,113.9 -145.1,105.9 	"/>
</g>
<path d="M-46.2,98.5v16.3h3.6v-3.9l1.7-1.9l2.6,5.9h4l-4-8.9l3.5-4.1h-4.2l-3.7,4.2v-9H-43L-46.2,98.5z"/>
<path d="M-83.2,98.4h-14c-0.8,0-1.4,0.7-1.4,1.4v5.1c0,4.6,3.7,8.4,8.4,8.4s8.4-3.8,8.4-8.4v-5.1C-81.8,99.1-82.5,98.4-83.2,98.4z
	 M-85.4,104.6l-4,3.9c-0.2,0.2-0.5,0.3-0.8,0.3s-0.5-0.1-0.8-0.3l-4-3.8c-0.2-0.2-0.3-0.4-0.3-0.8s0.1-0.6,0.3-0.8l0.1-0.1
	c0.4-0.4,1-0.4,1.5,0l3.2,3l3.2-3.1c0.4-0.4,1.1-0.4,1.5,0l0.1,0.1c0.2,0.2,0.3,0.5,0.3,0.8C-85.1,104.1-85.2,104.4-85.4,104.6z"/>
<rect x="0.7" y="97" width="6" height="17.8"/>
<rect x="6.7" y="97" fill="#282828" width="11.9" height="5.9"/>
<rect x="6.7" y="102.9" fill="#3A3A3A" width="6" height="5.9"/>
<g>
	<path d="M59.8,95.2c-5.9,0-10.7,4.8-10.7,10.7c0,4.4,2.7,8.2,6.4,9.8c0-0.8,0-1.7,0.2-2.4c0.2-0.8,1.4-5.8,1.4-5.8
		s-0.3-0.7-0.3-1.7c0-1.6,0.9-2.8,2-2.8c1,0,1.5,0.8,1.5,1.6c0,1-0.6,2.4-1,3.8c-0.2,1.2,0.5,2.1,1.7,2.1c2,0,3.4-2.6,3.4-5.7
		c0-2.3-1.6-4.1-4.5-4.1c-3.2,0-5.2,2.4-5.2,5.2c0,0.9,0.3,1.6,0.7,2.1c0.2,0.2,0.2,0.3,0.2,0.6c0,0.2-0.2,0.7-0.2,0.8
		c0,0.2-0.3,0.3-0.5,0.2c-1.5-0.6-2.2-2.2-2.2-4.1c0-3.1,2.5-6.7,7.7-6.7c4.1,0,6.8,2.9,6.8,6.2c0,4.2-2.3,7.3-5.8,7.3
		c-1.2,0-2.2-0.6-2.6-1.3c0,0-0.6,2.4-0.8,2.9c-0.2,0.8-0.7,1.7-1.1,2.3c1,0.3,2,0.4,3,0.4c5.9,0,10.7-4.8,10.7-10.7
		C70.5,100,65.7,95.2,59.8,95.2z"/>
</g>
<path d="M-532.4,97.1h-15.8c-0.5,0-1,0.4-1,1v15.7c0,0.6,0.5,1,1,1h8.5V108h-2.3v-2.6h2.3v-1.9c0-2.3,1.4-3.6,3.4-3.6
	c1,0,1.8,0.1,2.1,0.1v2.4h-1.4c-1.1,0-1.3,0.6-1.3,1.3v1.7h2.6l-0.3,2.6h-2.3v6.8h4.5c0.5,0,1-0.4,1-1V98.1
	C-531.4,97.6-531.8,97.1-532.4,97.1z"/>
<path fill="#FFFFFF" d="M-532.4,47.1h-15.8c-0.5,0-1,0.5-1,1v15.8c0,0.5,0.5,1,1,1h8.5V58h-2.3v-2.6h2.3v-2c0-2.3,1.4-3.5,3.4-3.5
	c1,0,1.8,0,2.1,0.1v2.4h-1.4c-1.1,0-1.3,0.5-1.3,1.3v1.7h2.6l-0.3,2.6h-2.3v6.9h4.5c0.5,0,1-0.5,1-1V48.1
	C-531.4,47.6-531.8,47.1-532.4,47.1z"/>
</svg>
