<?xml version="1.0" encoding="utf-8"?>
<!-- Generator: Adobe Illustrator 16.0.0, SVG Export Plug-In . SVG Version: 6.00 Build 0)  -->
<!DOCTYPE svg PUBLIC "-//W3C//DTD SVG 1.1//EN" "http://www.w3.org/Graphics/SVG/1.1/DTD/svg11.dtd">
<svg version="1.1" id="Layer_1" xmlns="http://www.w3.org/2000/svg" xmlns:xlink="http://www.w3.org/1999/xlink" x="0px" y="0px"
	 width="810px" height="180px" viewBox="0 0 810 180" enable-background="new 0 0 810 180" xml:space="preserve">
<g>
	<g>
		<path fill="#FFFFFF" d="M515.726,27.404c-0.812-0.811-2.128-0.811-2.938,0l-2.938,2.936c-0.809,0.813-0.809,2.127,0.001,2.938
			c0.812,0.811,2.127,0.811,2.937,0.001l2.938-2.939C516.536,29.529,516.536,28.216,515.726,27.404z"/>
		<path fill="#FFFFFF" d="M520.976,43.016h-4.154c-1.146,0-2.075,0.93-2.076,2.074c0,1.149,0.929,2.079,2.076,2.079h4.154
			c1.147,0,2.076-0.93,2.077-2.079C523.052,43.945,522.121,43.016,520.976,43.016z"/>
		<path fill="#FFFFFF" d="M483.286,33.279c0.813,0.81,2.126,0.81,2.938,0c0.812-0.812,0.812-2.127,0.002-2.937l-2.939-2.94
			c-0.811-0.81-2.125-0.81-2.937,0c-0.811,0.814-0.811,2.131,0,2.94L483.286,33.279z"/>
		<path fill="#FFFFFF" d="M498.038,36.767c4.599,0,8.325,3.727,8.325,8.325c0,0.5-0.051,0.987-0.136,1.462
			c1.328,0.735,2.506,1.707,3.48,2.856c0.498-1.347,0.785-2.797,0.785-4.317c0.002-6.88-5.575-12.456-12.453-12.455
			c-3.961,0-7.48,1.853-9.762,4.731c1.406,0.415,2.735,1.008,3.96,1.759C493.737,37.667,495.78,36.767,498.038,36.767z"/>
		<path fill="#FFFFFF" d="M498.036,28.385c1.147,0,2.076-0.93,2.076-2.075v-4.156c0-1.146-0.929-2.074-2.076-2.075
			c-1.146,0.001-2.076,0.932-2.076,2.075v4.156C495.961,27.453,496.892,28.385,498.036,28.385z"/>
	</g>
	<path fill="#FFFFFF" d="M509.708,49.411c-0.974-1.15-2.151-2.121-3.48-2.856c-1.785-0.988-3.835-1.553-6.022-1.553
		c-0.724,0-1.421,0.092-2.109,0.213c-1.397-2.498-3.423-4.596-5.856-6.086c-1.226-0.751-2.554-1.343-3.96-1.758
		c-1.487-0.437-3.059-0.678-4.688-0.678c-9.176,0-16.615,7.439-16.615,16.615c0,8.116,5.823,14.862,13.515,16.314l18.677,0.299
		c0.4,0,0.764,0,1.038,0c6.883,0,12.461-5.577,12.461-12.459C512.666,54.391,511.551,51.583,509.708,49.411z M500.205,65.768
		c-0.511,0-1.21,0-2.017,0l-16.648-0.182c-5.903-0.979-10.41-6.097-10.41-12.278c0-6.882,5.579-12.46,12.461-12.46
		c0.909,0,1.791,0.109,2.644,0.294c1.38,0.299,2.67,0.826,3.837,1.542c2.798,1.72,4.869,4.512,5.635,7.812
		c1.299-0.842,2.84-1.342,4.499-1.342c1.569,0,3.032,0.443,4.284,1.199c1.198,0.725,2.196,1.736,2.9,2.948
		c0.712,1.225,1.124,2.645,1.124,4.161C508.514,62.05,504.793,65.768,500.205,65.768z"/>
</g>
<path fill="#FFFFFF" d="M57.437,45.07c0.001-6.88-5.575-12.457-12.454-12.456c-6.878-0.001-12.454,5.574-12.454,12.452
	c0.002,6.879,5.577,12.456,12.456,12.456C51.863,57.522,57.437,51.945,57.437,45.07z M36.657,45.068
	c0.001-4.599,3.729-8.325,8.324-8.325c4.599,0,8.326,3.728,8.326,8.325c0,4.596-3.726,8.325-8.326,8.325
	C40.386,53.394,36.659,49.666,36.657,45.068z M47.057,22.131v4.154c0,1.147-0.93,2.077-2.077,2.077
	c-1.146-0.002-2.075-0.932-2.077-2.077v-4.154c0-1.146,0.93-2.074,2.077-2.076C46.127,20.055,47.057,20.985,47.057,22.131z
	 M22.043,42.992h4.155c1.147,0,2.077,0.93,2.077,2.078c-0.001,1.146-0.932,2.075-2.077,2.075h-4.155
	c-1.145,0-2.075-0.93-2.076-2.075C19.968,43.922,20.896,42.992,22.043,42.992z M30.229,27.38l2.939,2.939
	c0.81,0.81,0.81,2.125-0.002,2.937c-0.812,0.81-2.125,0.81-2.938,0l-2.937-2.937c-0.81-0.81-0.81-2.126,0-2.939
	C28.104,26.57,29.419,26.57,30.229,27.38z M62.669,30.316l-2.938,2.939c-0.811,0.81-2.125,0.81-2.937-0.002
	c-0.809-0.812-0.809-2.125-0.001-2.938l2.938-2.937c0.81-0.81,2.126-0.81,2.938,0C63.48,28.191,63.48,29.507,62.669,30.316z
	 M42.905,68.007v-4.155c0-1.146,0.93-2.076,2.077-2.076c1.145,0.001,2.075,0.932,2.077,2.076v4.155c0,1.145-0.93,2.074-2.077,2.076
	C43.835,70.082,42.905,69.153,42.905,68.007z M67.919,47.146h-4.154c-1.147,0-2.077-0.93-2.077-2.079
	c0.002-1.145,0.932-2.074,2.077-2.074h4.154c1.146,0,2.075,0.93,2.077,2.074C69.995,46.216,69.066,47.146,67.919,47.146z
	 M59.734,62.758l-2.939-2.939c-0.81-0.811-0.81-2.125,0.001-2.937c0.812-0.81,2.125-0.81,2.938,0l2.937,2.937
	c0.81,0.81,0.81,2.126,0,2.939C61.858,63.568,60.543,63.568,59.734,62.758z M27.293,59.821l2.938-2.939
	c0.811-0.81,2.126-0.81,2.938,0.001c0.809,0.812,0.809,2.125,0.001,2.938l-2.938,2.937c-0.81,0.811-2.126,0.811-2.938,0
	C26.482,61.945,26.482,60.632,27.293,59.821z"/>
<path fill="#FFFFFF" d="M595.385,36.692c-0.724,0-1.422,0.094-2.111,0.215c-2.843-5.082-8.269-8.522-14.503-8.522
	c-9.176,0-16.616,7.439-16.616,16.615c0,8.116,5.823,14.862,13.516,16.314l18.677,0.301c0.401,0,0.763,0,1.038,0
	c6.884,0,12.461-5.579,12.461-12.461C607.845,42.271,602.268,36.692,595.385,36.692z M595.385,57.46c-0.511,0-1.211,0-2.019,0
	l-16.646-0.182c-5.904-0.979-10.411-6.096-10.411-12.278c0-6.882,5.578-12.459,12.461-12.459c5.91,0,10.834,4.125,12.114,9.646
	c1.3-0.842,2.839-1.341,4.501-1.341c4.587,0,8.309,3.72,8.309,8.308S599.972,57.46,595.385,57.46z"/>
<g>
	<path fill="#FFFFFF" d="M126.692,42.922c1.147,0,2.077,0.931,2.077,2.077v4.153c0,1.148-0.93,2.076-2.077,2.076
		c-1.146,0-2.076-0.928-2.076-2.076v-4.153C124.616,43.853,125.545,42.922,126.692,42.922z M126.692,55.386
		c1.147,0,2.077,0.929,2.077,2.075v4.151c0,1.148-0.93,2.078-2.077,2.078c-1.146,0-2.076-0.93-2.076-2.078v-4.151
		C124.616,56.312,125.545,55.386,126.692,55.386z M135.001,47.077c1.146,0,2.076,0.93,2.076,2.075v4.154
		c0,1.146-0.93,2.078-2.076,2.078c-1.149,0-2.078-0.933-2.078-2.078v-4.154C132.923,48.007,133.852,47.077,135.001,47.077z
		 M135.001,59.537c1.146,0,2.076,0.93,2.076,2.075v4.156c0,1.146-0.93,2.077-2.076,2.077c-1.149,0-2.078-0.931-2.078-2.077v-4.156
		C132.923,60.467,133.852,59.537,135.001,59.537z M143.308,42.922c1.146,0,2.076,0.931,2.076,2.077v4.153
		c0,1.148-0.929,2.076-2.076,2.076c-1.147,0-2.076-0.928-2.076-2.076v-4.153C141.23,43.853,142.16,42.922,143.308,42.922z
		 M143.308,55.386c1.146,0,2.076,0.929,2.076,2.075v4.151c0,1.148-0.929,2.078-2.076,2.078c-1.147,0-2.076-0.93-2.076-2.078v-4.151
		C141.23,56.312,142.16,55.386,143.308,55.386z"/>
	<path fill="#FFFFFF" d="M145.384,30.46c-0.725,0-1.422,0.097-2.113,0.215c-2.842-5.082-8.266-8.521-14.502-8.521
		c-9.174,0-16.615,7.438-16.615,16.615c0,6.223,3.426,11.64,8.491,14.485v-5.07c-2.648-2.284-4.338-5.646-4.338-9.415
		c0-6.884,5.58-12.462,12.462-12.462c5.911,0,10.835,4.126,12.115,9.647c1.298-0.84,2.838-1.339,4.501-1.339
		c4.588,0,8.306,3.718,8.306,8.306c0,3.081-1.679,5.759-4.168,7.19v4.552c4.845-1.708,8.324-6.312,8.324-11.742
		C157.846,36.04,152.266,30.46,145.384,30.46z"/>
</g>
<g>
	<path fill="#FFFFFF" d="M687.46,58.312v-4.237c3.58-0.924,6.231-4.165,6.231-8.035c0-4.588-3.721-8.308-8.309-8.308
		c-1.662,0-3.202,0.499-4.501,1.341c-1.279-5.521-6.204-9.646-12.114-9.646c-6.882,0-12.462,5.577-12.462,12.459
		c0,4.609,2.511,8.626,6.23,10.781v4.616c-6.086-2.465-10.382-8.426-10.382-15.397c0-9.174,7.438-16.614,16.613-16.614
		c6.235,0,11.661,3.439,14.503,8.521c0.688-0.117,1.389-0.214,2.111-0.214c6.882,0,12.462,5.579,12.462,12.461
		C697.845,52.212,693.352,57.324,687.46,58.312z"/>
	<path fill="#FFFFFF" d="M681.433,57.742l-2.281-1.318l2.281-1.316c0.993-0.573,1.332-1.844,0.761-2.837
		c-0.573-0.995-1.845-1.333-2.838-0.76l-2.279,1.313v-2.632c0-1.147-0.931-2.077-2.076-2.077c-1.148,0-2.079,0.93-2.079,2.077v2.632
		l-2.276-1.313c-0.996-0.573-2.265-0.235-2.84,0.76c-0.573,0.993-0.233,2.264,0.76,2.837l2.28,1.316l-2.28,1.318
		c-0.993,0.569-1.332,1.843-0.76,2.834c0.575,0.995,1.844,1.334,2.84,0.761l2.276-1.318v2.635c0,1.148,0.931,2.076,2.079,2.076
		c1.146,0,2.076-0.928,2.076-2.076v-2.635l2.279,1.318c0.992,0.573,2.265,0.232,2.838-0.761
		C682.766,59.585,682.426,58.312,681.433,57.742z M675,58.502c-1.148,0-2.079-0.93-2.079-2.078c0-1.147,0.931-2.076,2.079-2.076
		c1.146,0,2.076,0.929,2.076,2.076C677.076,57.57,676.146,58.502,675,58.502z"/>
</g>
<g>
	<path fill="#FFFFFF" d="M775.385,55.384c-0.291,0-0.676,0-1.104,0l3.725-4.581c3.302-1.099,5.687-4.208,5.687-7.881
		c0-4.588-3.72-8.306-8.306-8.306c-1.665,0-3.204,0.498-4.502,1.34c-1.28-5.523-6.202-9.648-12.115-9.648
		c-6.881,0-12.462,5.579-12.462,12.461c0,5.656,3.773,10.424,8.937,11.948l-1.399,3.925c-6.771-2.101-11.69-8.413-11.69-15.873
		c0-9.176,7.441-16.615,16.614-16.615c6.236,0,11.662,3.44,14.504,8.522c0.691-0.12,1.388-0.217,2.112-0.217
		c6.882,0,12.462,5.581,12.462,12.463C787.847,49.806,782.267,55.384,775.385,55.384z"/>
	<polygon fill="#FFFFFF" points="762.924,40.847 773.306,40.847 767.076,51.231 774.346,51.231 760.846,67.847 764.584,55.384 
		757.73,55.384 	"/>
</g>
<g>
	<path fill="#FFFFFF" d="M334.35,55.309v0.054h-0.78h-3.121c-1.148,0-2.08-0.93-2.08-2.082c0-1.147,0.932-2.082,2.08-2.082h3.121
		c1.149,0,2.081-0.93,2.081-2.078s-0.932-2.078-2.081-2.078s-2.081-0.934-2.081-2.082s0.932-2.078,2.081-2.078
		c0.145,0,0.285,0.013,0.419,0.04c3.248,0.22,5.824,2.896,5.824,6.198C339.812,52.3,337.428,54.923,334.35,55.309z M323.169,42.88
		c-1.15,0-2.084-0.934-2.084-2.082c0-1.152,0.934-2.08,2.084-2.08c0.141,0,0.281,0.015,0.416,0.042
		c3.251,0.221,5.824,2.896,5.824,6.199c0,3.184-2.384,5.802-5.461,6.188v0.051h-0.779h-8.312c-4.173,0-11.817,0-14.578,0
		c-1.148,0-2.078,0.935-2.078,2.082c0,1.152,0.93,2.082,2.078,2.082h22.89h0.779v0.053c3.077,0.387,5.461,3.006,5.461,6.188
		c0,3.303-2.573,5.98-5.824,6.2c-0.135,0.027-0.275,0.04-0.416,0.04c-1.15,0-2.084-0.929-2.084-2.079
		c0-1.148,0.934-2.078,2.084-2.078c1.146,0,2.077-0.934,2.077-2.081c0-1.149-0.932-2.081-2.077-2.081h-22.89H299.5v-0.053
		c-3.078-0.387-5.462-3.006-5.462-6.189c0-1.097,0.307-2.115,0.805-3.006c-6.518-2.256-11.206-8.433-11.206-15.719
		c0-9.191,7.45-16.646,16.643-16.646c6.249,0,11.684,3.448,14.529,8.539c0.692-0.12,1.393-0.216,2.116-0.216
		c6.134,0,11.228,4.43,12.275,10.262c-1.451-1.036-3.173-1.713-5.044-1.889c-1.434-2.515-4.134-4.211-7.231-4.211
		c-1.666,0-3.21,0.501-4.509,1.342c-1.281-5.533-6.214-9.665-12.137-9.665c-6.895,0-12.482,5.59-12.482,12.481
		c0,6.894,5.588,12.486,12.482,12.486c2.703,0,8.481,0,12.694,0h10.195c1.146,0,2.077-0.934,2.077-2.082
		C325.246,43.81,324.314,42.88,323.169,42.88z"/>
	<path fill="#FFFFFF" d="M334.544,58.732c1.15,0,2.083,0.932,2.083,2.082c0,1.148-0.933,2.076-2.083,2.076
		c-1.148,0-2.08-0.928-2.08-2.076C332.464,59.664,333.396,58.732,334.544,58.732z"/>
	<circle fill="#FFFFFF" cx="344.282" cy="57.025" r="2.08"/>
	<circle fill="#FFFFFF" cx="334.544" cy="70.009" r="2.081"/>
	<path fill="#FFFFFF" d="M344.282,64.141c1.148,0,2.081,0.932,2.081,2.082c0,1.149-0.933,2.077-2.081,2.077
		s-2.081-0.928-2.081-2.077C342.201,65.072,343.134,64.141,344.282,64.141z"/>
</g>
<g>
	<g>
		<path fill="#FFFFFF" d="M234.589,56.171c-1.1,0.334-1.265-0.591-1.596-1.689l-2.406-7.969c-0.332-1.098-0.706-1.959,0.395-2.291
			c1.103-0.334,1.266,0.591,1.597,1.689l2.406,7.97C235.316,54.979,235.691,55.839,234.589,56.171z"/>
		<path fill="#FFFFFF" d="M235.791,60.156c1.103-0.333,2.263,0.29,2.592,1.389c0.333,1.103-0.288,2.261-1.389,2.593
			c-1.1,0.332-2.261-0.287-2.593-1.389C234.069,61.651,234.691,60.488,235.791,60.156z"/>
		<path fill="#FFFFFF" d="M227.825,62.048c-1.099,0.332-1.266-0.591-1.599-1.691l-2.405-7.967c-0.333-1.101-0.704-1.96,0.396-2.292
			c1.099-0.332,1.264,0.591,1.595,1.692l2.405,7.968C228.551,60.857,228.925,61.718,227.825,62.048z"/>
		<circle fill="#FFFFFF" cx="229.628" cy="68.022" r="2.081"/>
		<path fill="#FFFFFF" d="M218.656,58.254c-1.1,0.331-1.265-0.593-1.598-1.691l-2.406-7.968c-0.331-1.099-0.704-1.958,0.395-2.292
			c1.1-0.331,1.266,0.591,1.597,1.689l2.405,7.969C219.381,57.062,219.754,57.923,218.656,58.254z"/>
		<path fill="#FFFFFF" d="M219.857,62.237c1.099-0.332,2.259,0.29,2.592,1.391c0.334,1.1-0.289,2.262-1.39,2.593
			c-1.1,0.33-2.262-0.291-2.594-1.391C218.135,63.729,218.757,62.57,219.857,62.237z"/>
	</g>
	<path fill="#FFFFFF" d="M235.403,30.476c-0.726,0-1.425,0.097-2.116,0.216c-2.849-5.091-8.283-8.537-14.53-8.537
		c-9.193,0-16.642,7.453-16.642,16.646c0,6.159,3.35,11.521,8.32,14.398v-0.003c-0.023-0.079-0.047-0.156-0.072-0.236l-2.368-7.85
		c-1.095-1.85-1.722-4.005-1.722-6.31c0-6.894,5.588-12.481,12.482-12.481c5.922,0,10.855,4.132,12.137,9.664
		c1.299-0.844,2.843-1.345,4.508-1.345c4.595,0,8.32,3.728,8.32,8.324c0,3.066-1.664,5.736-4.133,7.182l1.215,4.023
		c4.179-2.015,7.081-6.254,7.081-11.205C247.886,36.065,242.297,30.476,235.403,30.476z"/>
</g>
<g>
	<path fill="#FFFFFF" d="M380.676,71.253c0-1.149,0.932-2.079,2.081-2.079h16.643c1.151,0,2.082,0.93,2.082,2.079
		c0,1.15-0.931,2.08-2.082,2.08h-16.643C381.607,73.334,380.676,72.403,380.676,71.253z"/>
	<path fill="#FFFFFF" d="M388.642,54.61c0-1.151,0.932-2.082,2.08-2.082h16.644c1.149,0,2.08,0.931,2.08,2.082
		c0,1.146-0.931,2.077-2.08,2.077h-16.644C389.573,56.689,388.642,55.757,388.642,54.61z"/>
	<path fill="#FFFFFF" d="M397.42,62.93c0-1.146,0.931-2.078,2.082-2.078h26.059c1.149,0,2.081,0.932,2.081,2.078
		c0,1.15-0.932,2.081-2.081,2.081h-26.059C398.351,65.011,397.42,64.08,397.42,62.93z"/>
	<g>
		<path fill="#FFFFFF" d="M425.753,24.007c-0.812-0.811-2.13-0.811-2.941,0l-2.943,2.942c-0.812,0.813-0.812,2.129,0.002,2.942
			c0.812,0.813,2.131,0.813,2.941,0.001l2.941-2.943C426.567,26.137,426.567,24.818,425.753,24.007z"/>
		<path fill="#FFFFFF" d="M431.015,39.646h-4.164c-1.146,0-2.077,0.932-2.08,2.08c0,1.149,0.931,2.083,2.08,2.083h4.164
			c1.148,0,2.079-0.934,2.079-2.083C433.095,40.577,432.163,39.646,431.015,39.646z"/>
		<path fill="#FFFFFF" d="M393.258,29.893c0.812,0.812,2.129,0.812,2.941,0c0.814-0.813,0.814-2.13,0.003-2.94l-2.944-2.945
			c-0.813-0.811-2.132-0.811-2.942,0c-0.812,0.813-0.812,2.134,0,2.945L393.258,29.893z"/>
		<path fill="#FFFFFF" d="M408.034,33.386c4.607,0,8.343,3.733,8.343,8.341c0,0.502-0.054,0.986-0.135,1.465
			c1.329,0.735,2.508,1.71,3.484,2.859c0.5-1.349,0.787-2.8,0.787-4.323c0-6.893-5.585-12.479-12.476-12.478
			c-3.967-0.002-7.494,1.854-9.778,4.741c1.406,0.414,2.738,1.009,3.965,1.761C403.727,34.29,405.773,33.386,408.034,33.386z"/>
		<path fill="#FFFFFF" d="M408.034,24.99c1.15,0,2.08-0.932,2.08-2.081v-4.162c0-1.147-0.93-2.078-2.08-2.079
			c-1.149,0.001-2.081,0.933-2.081,2.079v4.162C405.955,24.058,406.887,24.988,408.034,24.99z"/>
	</g>
	<path fill="#FFFFFF" d="M384.137,58.127c-1.901-2.188-3.057-5.042-3.057-8.17c0-6.894,5.587-12.483,12.482-12.483
		c0.912,0,1.795,0.109,2.649,0.293c1.382,0.302,2.675,0.83,3.841,1.547c2.805,1.723,4.88,4.521,5.647,7.824
		c1.301-0.844,2.846-1.346,4.507-1.346c1.571,0,3.036,0.445,4.291,1.203c1.201,0.726,2.201,1.738,2.905,2.953
		c0.713,1.227,1.128,2.649,1.128,4.17c0,0.59-0.064,1.164-0.184,1.721h4.211c0.076-0.562,0.131-1.138,0.131-1.721
		c0-3.078-1.116-5.892-2.963-8.067c-0.977-1.15-2.155-2.125-3.484-2.86c-1.791-0.99-3.847-1.557-6.035-1.557
		c-0.724,0-1.425,0.093-2.116,0.215c-1.397-2.504-3.426-4.606-5.866-6.099c-1.228-0.751-2.559-1.346-3.965-1.76
		c-1.491-0.438-3.064-0.678-4.695-0.678c-9.195,0-16.646,7.451-16.646,16.645c0,2.972,0.786,5.757,2.153,8.17H384.137z"/>
</g>
<path fill="#FFD042" d="M57.437,135.07c0.001-6.88-5.575-12.457-12.454-12.456c-6.878-0.001-12.454,5.574-12.454,12.452
	c0.002,6.879,5.577,12.456,12.456,12.456C51.863,147.522,57.437,141.945,57.437,135.07z M36.657,135.068
	c0.001-4.598,3.729-8.326,8.324-8.326c4.599,0,8.326,3.729,8.326,8.326c0,4.596-3.726,8.325-8.326,8.325
	C40.386,143.394,36.659,139.665,36.657,135.068z M47.057,112.131v4.154c0,1.147-0.93,2.077-2.077,2.077
	c-1.146-0.002-2.075-0.932-2.077-2.077v-4.154c0-1.146,0.93-2.076,2.077-2.076S47.057,110.983,47.057,112.131z M22.043,132.991
	h4.155c1.147,0,2.077,0.93,2.077,2.079c-0.001,1.145-0.932,2.076-2.077,2.076h-4.155c-1.145,0-2.075-0.932-2.076-2.076
	C19.968,133.921,20.896,132.991,22.043,132.991z M30.229,117.38l2.939,2.938c0.81,0.811,0.81,2.126-0.002,2.938
	c-0.812,0.809-2.125,0.809-2.938,0l-2.937-2.938c-0.81-0.81-0.81-2.125,0-2.938C28.104,116.569,29.419,116.569,30.229,117.38z
	 M62.669,120.315l-2.938,2.94c-0.811,0.809-2.125,0.809-2.937-0.002c-0.809-0.812-0.809-2.125-0.001-2.938l2.938-2.936
	c0.81-0.811,2.126-0.811,2.938,0C63.48,118.191,63.48,119.507,62.669,120.315z M42.905,158.006v-4.153
	c0-1.147,0.93-2.077,2.077-2.077c1.145,0.001,2.075,0.932,2.077,2.077v4.153c0,1.146-0.93,2.074-2.077,2.076
	C43.835,160.082,42.905,159.152,42.905,158.006z M67.919,137.146h-4.154c-1.147,0-2.077-0.932-2.077-2.08
	c0.002-1.146,0.932-2.075,2.077-2.075h4.154c1.146,0,2.075,0.93,2.077,2.075C69.995,136.215,69.066,137.146,67.919,137.146z
	 M59.734,152.758l-2.939-2.939c-0.81-0.811-0.81-2.125,0.001-2.938c0.812-0.811,2.125-0.811,2.938,0l2.937,2.938
	c0.81,0.809,0.81,2.125,0,2.939C61.858,153.568,60.543,153.568,59.734,152.758z M27.293,149.82l2.938-2.939
	c0.811-0.811,2.126-0.811,2.938,0.002c0.809,0.812,0.809,2.125,0.001,2.938l-2.938,2.938c-0.81,0.811-2.126,0.811-2.938,0
	C26.482,151.945,26.482,150.631,27.293,149.82z"/>
<path fill="#FFFFFF" d="M595.385,126.692c-0.724,0-1.422,0.094-2.111,0.213c-2.843-5.08-8.269-8.521-14.503-8.521
	c-9.176,0-16.616,7.439-16.616,16.615c0,8.116,5.823,14.86,13.516,16.314l18.677,0.301c0.401,0,0.763,0,1.038,0
	c6.884,0,12.461-5.58,12.461-12.462C607.845,132.271,602.268,126.692,595.385,126.692z M595.385,147.459c-0.511,0-1.211,0-2.019,0
	l-16.646-0.181c-5.904-0.979-10.411-6.096-10.411-12.278c0-6.882,5.578-12.461,12.461-12.461c5.91,0,10.834,4.127,12.114,9.648
	c1.3-0.842,2.839-1.343,4.501-1.343c4.587,0,8.309,3.721,8.309,8.309S599.972,147.459,595.385,147.459z"/>
<g>
	<g>
		<path fill="#FFD042" d="M515.726,117.402c-0.812-0.811-2.128-0.811-2.938,0l-2.938,2.938c-0.809,0.812-0.809,2.125,0.001,2.938
			c0.812,0.812,2.127,0.812,2.937,0.002l2.938-2.939C516.536,119.529,516.536,118.215,515.726,117.402z"/>
		<path fill="#FFD042" d="M520.976,133.014h-4.154c-1.146,0-2.075,0.932-2.076,2.076c0,1.149,0.929,2.077,2.076,2.077h4.154
			c1.147,0,2.076-0.928,2.077-2.077C523.052,133.945,522.121,133.014,520.976,133.014z"/>
		<path fill="#FFD042" d="M483.286,123.279c0.813,0.81,2.126,0.81,2.938,0c0.812-0.812,0.812-2.127,0.002-2.938l-2.939-2.939
			c-0.811-0.811-2.125-0.811-2.937,0c-0.811,0.814-0.811,2.131,0,2.939L483.286,123.279z"/>
		<path fill="#FFD042" d="M498.038,126.765c4.599,0,8.325,3.729,8.325,8.327c0,0.501-0.051,0.987-0.136,1.462
			c1.328,0.735,2.506,1.707,3.48,2.856c0.498-1.347,0.785-2.797,0.785-4.317c0.002-6.88-5.575-12.457-12.453-12.455
			c-3.961,0-7.48,1.853-9.762,4.731c1.406,0.415,2.735,1.009,3.96,1.758C493.737,127.666,495.78,126.765,498.038,126.765z"/>
		<path fill="#FFD042" d="M498.036,118.385c1.147,0,2.076-0.93,2.076-2.077v-4.154c0-1.146-0.929-2.075-2.076-2.077
			c-1.146,0.002-2.076,0.934-2.076,2.077v4.154C495.961,117.453,496.892,118.384,498.036,118.385z"/>
	</g>
	<path fill="#FFFFFF" d="M509.708,139.41c-0.974-1.149-2.151-2.121-3.48-2.856c-1.785-0.987-3.835-1.554-6.022-1.554
		c-0.724,0-1.421,0.093-2.109,0.215c-1.397-2.498-3.423-4.597-5.856-6.086c-1.226-0.751-2.554-1.343-3.96-1.758
		c-1.487-0.438-3.059-0.679-4.688-0.679c-9.176,0-16.615,7.439-16.615,16.615c0,8.117,5.823,14.862,13.515,16.315l18.677,0.301
		c0.4,0,0.764,0,1.038,0c6.883,0,12.461-5.579,12.461-12.461C512.666,144.389,511.551,141.583,509.708,139.41z M500.205,155.767
		c-0.511,0-1.21,0-2.017,0l-16.648-0.181c-5.903-0.979-10.41-6.097-10.41-12.278c0-6.882,5.579-12.461,12.461-12.461
		c0.909,0,1.791,0.11,2.644,0.295c1.38,0.299,2.67,0.826,3.837,1.542c2.798,1.719,4.869,4.512,5.635,7.812
		c1.299-0.842,2.84-1.343,4.499-1.343c1.569,0,3.032,0.442,4.284,1.2c1.198,0.725,2.196,1.736,2.9,2.948
		c0.712,1.225,1.124,2.644,1.124,4.16C508.514,152.049,504.793,155.767,500.205,155.767z"/>
</g>
<g>
	<path fill="#55A8BD" d="M126.692,132.922c1.147,0,2.077,0.931,2.077,2.078v4.152c0,1.147-0.93,2.075-2.077,2.075
		c-1.146,0-2.076-0.928-2.076-2.075V135C124.616,133.853,125.545,132.922,126.692,132.922z M126.692,145.385
		c1.147,0,2.077,0.929,2.077,2.076v4.15c0,1.149-0.93,2.079-2.077,2.079c-1.146,0-2.076-0.93-2.076-2.079v-4.15
		C124.616,146.312,125.545,145.385,126.692,145.385z M135.001,137.076c1.146,0,2.076,0.93,2.076,2.076v4.153
		c0,1.146-0.93,2.079-2.076,2.079c-1.149,0-2.078-0.933-2.078-2.079v-4.153C132.923,138.006,133.852,137.076,135.001,137.076z
		 M135.001,149.537c1.146,0,2.076,0.93,2.076,2.074v4.157c0,1.146-0.93,2.076-2.076,2.076c-1.149,0-2.078-0.93-2.078-2.076v-4.157
		C132.923,150.467,133.852,149.537,135.001,149.537z M143.308,132.922c1.146,0,2.076,0.931,2.076,2.078v4.152
		c0,1.147-0.929,2.075-2.076,2.075c-1.147,0-2.076-0.928-2.076-2.075V135C141.23,133.853,142.16,132.922,143.308,132.922z
		 M143.308,145.385c1.146,0,2.076,0.929,2.076,2.076v4.15c0,1.149-0.929,2.079-2.076,2.079c-1.147,0-2.076-0.93-2.076-2.079v-4.15
		C141.23,146.312,142.16,145.385,143.308,145.385z"/>
	<path fill="#FFFFFF" d="M145.384,120.461c-0.725,0-1.422,0.095-2.113,0.213c-2.842-5.082-8.266-8.519-14.502-8.519
		c-9.174,0-16.615,7.436-16.615,16.613c0,6.223,3.426,11.641,8.491,14.486v-5.071c-2.648-2.282-4.338-5.645-4.338-9.415
		c0-6.884,5.58-12.461,12.462-12.461c5.911,0,10.835,4.125,12.115,9.646c1.298-0.84,2.838-1.338,4.501-1.338
		c4.588,0,8.306,3.718,8.306,8.306c0,3.08-1.679,5.759-4.168,7.189v4.553c4.845-1.708,8.324-6.312,8.324-11.742
		C157.846,126.04,152.266,120.461,145.384,120.461z"/>
</g>
<g>
	<path fill="#FFFFFF" d="M687.46,148.312v-4.237c3.58-0.924,6.231-4.166,6.231-8.035c0-4.588-3.721-8.308-8.309-8.308
		c-1.662,0-3.202,0.498-4.501,1.342c-1.279-5.522-6.204-9.649-12.114-9.649c-6.882,0-12.462,5.578-12.462,12.461
		c0,4.609,2.511,8.625,6.23,10.779v4.617c-6.086-2.466-10.382-8.425-10.382-15.396c0-9.175,7.438-16.614,16.613-16.614
		c6.235,0,11.661,3.438,14.503,8.52c0.688-0.116,1.389-0.213,2.111-0.213c6.882,0,12.462,5.58,12.462,12.462
		C697.845,142.212,693.352,147.323,687.46,148.312z"/>
	<path fill="#F1F0F0" d="M681.433,147.741l-2.281-1.318l2.281-1.315c0.993-0.573,1.332-1.845,0.761-2.837
		c-0.573-0.996-1.845-1.333-2.838-0.762l-2.279,1.315v-2.633c0-1.146-0.931-2.076-2.076-2.076c-1.148,0-2.079,0.93-2.079,2.076
		v2.633l-2.276-1.315c-0.996-0.571-2.265-0.233-2.84,0.762c-0.573,0.992-0.233,2.264,0.76,2.837l2.28,1.315l-2.28,1.318
		c-0.993,0.57-1.332,1.844-0.76,2.835c0.575,0.994,1.844,1.334,2.84,0.761l2.276-1.318v2.635c0,1.148,0.931,2.076,2.079,2.076
		c1.146,0,2.076-0.928,2.076-2.076v-2.635l2.279,1.318c0.992,0.573,2.265,0.232,2.838-0.761
		C682.766,149.585,682.426,148.312,681.433,147.741z M675,148.501c-1.148,0-2.079-0.93-2.079-2.077c0-1.149,0.931-2.077,2.079-2.077
		c1.146,0,2.076,0.928,2.076,2.077C677.076,147.57,676.146,148.501,675,148.501z"/>
</g>
<g>
	<path fill="#FFFFFF" d="M775.385,145.384c-0.291,0-0.676,0-1.104,0l3.725-4.581c3.302-1.098,5.687-4.208,5.687-7.881
		c0-4.588-3.72-8.306-8.306-8.306c-1.665,0-3.204,0.498-4.502,1.34c-1.28-5.523-6.202-9.648-12.115-9.648
		c-6.881,0-12.462,5.579-12.462,12.461c0,5.656,3.773,10.424,8.937,11.948l-1.399,3.925c-6.771-2.101-11.69-8.413-11.69-15.873
		c0-9.176,7.441-16.613,16.614-16.613c6.236,0,11.662,3.438,14.504,8.521c0.691-0.12,1.388-0.215,2.112-0.215
		c6.882,0,12.462,5.579,12.462,12.461C787.847,139.806,782.267,145.384,775.385,145.384z"/>
	<polygon fill="#FFD042" points="762.924,130.847 773.306,130.847 767.076,141.231 774.346,141.231 760.846,157.845 
		764.584,145.384 757.73,145.384 	"/>
</g>
<g>
	<path fill="#FFFFFF" d="M334.35,145.309v0.054h-0.78h-3.121c-1.148,0-2.08-0.93-2.08-2.082c0-1.147,0.932-2.082,2.08-2.082h3.121
		c1.149,0,2.081-0.931,2.081-2.079s-0.932-2.077-2.081-2.077s-2.081-0.934-2.081-2.082c0-1.149,0.932-2.078,2.081-2.078
		c0.145,0,0.285,0.013,0.419,0.041c3.248,0.219,5.824,2.896,5.824,6.198C339.812,142.301,337.428,144.923,334.35,145.309z
		 M323.169,132.88c-1.15,0-2.084-0.934-2.084-2.082c0-1.151,0.934-2.08,2.084-2.08c0.141,0,0.281,0.014,0.416,0.041
		c3.251,0.222,5.824,2.897,5.824,6.2c0,3.184-2.384,5.802-5.461,6.188v0.052h-0.779h-8.312c-4.173,0-11.817,0-14.578,0
		c-1.148,0-2.078,0.935-2.078,2.082c0,1.152,0.93,2.082,2.078,2.082h22.89h0.779v0.053c3.077,0.387,5.461,3.006,5.461,6.188
		c0,3.303-2.573,5.981-5.824,6.2c-0.135,0.028-0.275,0.039-0.416,0.039c-1.15,0-2.084-0.927-2.084-2.078
		c0-1.148,0.934-2.078,2.084-2.078c1.146,0,2.077-0.934,2.077-2.082s-0.932-2.08-2.077-2.08h-22.89H299.5v-0.053
		c-3.078-0.387-5.462-3.006-5.462-6.19c0-1.096,0.307-2.114,0.805-3.006c-6.518-2.255-11.206-8.432-11.206-15.719
		c0-9.19,7.45-16.645,16.643-16.645c6.249,0,11.684,3.448,14.529,8.538c0.692-0.12,1.393-0.216,2.116-0.216
		c6.134,0,11.228,4.43,12.275,10.262c-1.451-1.035-3.173-1.712-5.044-1.888c-1.434-2.514-4.134-4.211-7.231-4.211
		c-1.666,0-3.21,0.5-4.509,1.342c-1.281-5.533-6.214-9.665-12.137-9.665c-6.895,0-12.482,5.59-12.482,12.481
		c0,6.894,5.588,12.486,12.482,12.486c2.703,0,8.481,0,12.694,0h10.195c1.146,0,2.077-0.934,2.077-2.082
		C325.246,133.81,324.314,132.88,323.169,132.88z"/>
	<path fill="#F1F0F0" d="M334.544,148.732c1.15,0,2.083,0.932,2.083,2.082c0,1.148-0.933,2.076-2.083,2.076
		c-1.148,0-2.08-0.928-2.08-2.076C332.464,149.664,333.396,148.732,334.544,148.732z"/>
	<circle fill="#F1F0F0" cx="344.282" cy="147.025" r="2.079"/>
	<circle fill="#F1F0F0" cx="334.544" cy="160.008" r="2.081"/>
	<path fill="#F1F0F0" d="M344.282,154.141c1.148,0,2.081,0.932,2.081,2.082c0,1.149-0.933,2.077-2.081,2.077
		s-2.081-0.928-2.081-2.077C342.201,155.072,343.134,154.141,344.282,154.141z"/>
</g>
<g>
	<g>
		<path fill="#F1F0F0" d="M234.589,145.041c-1.1,0.334-1.265-0.59-1.596-1.688l-2.406-7.97c-0.332-1.098-0.706-1.958,0.395-2.29
			c1.103-0.334,1.266,0.591,1.597,1.689l2.406,7.969C235.316,143.849,235.691,144.709,234.589,145.041z"/>
		<path fill="#F1F0F0" d="M235.791,149.026c1.103-0.332,2.263,0.291,2.592,1.39c0.333,1.102-0.288,2.261-1.389,2.593
			c-1.1,0.332-2.261-0.288-2.593-1.389C234.069,150.521,234.691,149.358,235.791,149.026z"/>
		<path fill="#F1F0F0" d="M227.825,150.919c-1.099,0.332-1.266-0.592-1.599-1.691l-2.405-7.967c-0.333-1.102-0.704-1.96,0.396-2.292
			c1.099-0.333,1.264,0.589,1.595,1.692l2.405,7.967C228.551,149.728,228.925,150.588,227.825,150.919z"/>
		<circle fill="#F1F0F0" cx="229.628" cy="156.894" r="2.081"/>
		<path fill="#F1F0F0" d="M218.656,147.124c-1.1,0.332-1.265-0.591-1.598-1.689l-2.406-7.969c-0.331-1.1-0.704-1.959,0.395-2.293
			c1.1-0.33,1.266,0.592,1.597,1.689l2.405,7.969C219.381,145.933,219.754,146.793,218.656,147.124z"/>
		<path fill="#F1F0F0" d="M219.857,151.106c1.099-0.332,2.259,0.292,2.592,1.392c0.334,1.101-0.289,2.263-1.39,2.593
			c-1.1,0.331-2.262-0.291-2.594-1.391C218.135,152.601,218.757,151.44,219.857,151.106z"/>
	</g>
	<path fill="#FFFFFF" d="M235.403,119.347c-0.726,0-1.425,0.096-2.116,0.215c-2.849-5.09-8.283-8.536-14.53-8.536
		c-9.193,0-16.642,7.452-16.642,16.645c0,6.16,3.35,11.522,8.32,14.399v-0.004c-0.023-0.079-0.047-0.155-0.072-0.237l-2.368-7.849
		c-1.095-1.85-1.722-4.004-1.722-6.31c0-6.894,5.588-12.482,12.482-12.482c5.922,0,10.855,4.134,12.137,9.666
		c1.299-0.844,2.843-1.346,4.508-1.346c4.595,0,8.32,3.728,8.32,8.324c0,3.066-1.664,5.737-4.133,7.181l1.215,4.024
		c4.179-2.014,7.081-6.255,7.081-11.205C247.886,124.936,242.297,119.347,235.403,119.347z"/>
</g>
<g>
	<path fill="#F1F0F0" d="M380.676,161.253c0-1.149,0.932-2.08,2.081-2.08h16.643c1.151,0,2.082,0.931,2.082,2.08
		c0,1.15-0.931,2.08-2.082,2.08h-16.643C381.607,163.333,380.676,162.403,380.676,161.253z"/>
	<path fill="#F1F0F0" d="M388.642,144.609c0-1.15,0.932-2.081,2.08-2.081h16.644c1.149,0,2.08,0.931,2.08,2.081
		c0,1.147-0.931,2.079-2.08,2.079h-16.644C389.573,146.689,388.642,145.757,388.642,144.609z"/>
	<path fill="#F1F0F0" d="M397.42,152.931c0-1.147,0.931-2.079,2.082-2.079h26.059c1.149,0,2.081,0.932,2.081,2.079
		c0,1.149-0.932,2.08-2.081,2.08h-26.059C398.351,155.011,397.42,154.08,397.42,152.931z"/>
	<g>
		<path fill="#FFD042" d="M425.753,114.006c-0.812-0.81-2.13-0.81-2.941,0l-2.943,2.942c-0.812,0.814-0.812,2.13,0.002,2.942
			c0.812,0.814,2.131,0.814,2.941,0.002l2.941-2.944C426.567,116.137,426.567,114.819,425.753,114.006z"/>
		<path fill="#FFD042" d="M431.015,129.646h-4.164c-1.146,0-2.077,0.932-2.08,2.079c0,1.15,0.931,2.084,2.08,2.084h4.164
			c1.148,0,2.079-0.934,2.079-2.084C433.095,130.577,432.163,129.646,431.015,129.646z"/>
		<path fill="#FFD042" d="M393.258,119.893c0.812,0.812,2.129,0.812,2.941,0c0.814-0.813,0.814-2.13,0.003-2.941l-2.944-2.945
			c-0.813-0.81-2.132-0.81-2.942,0c-0.812,0.814-0.812,2.135,0,2.945L393.258,119.893z"/>
		<path fill="#FFD042" d="M408.034,123.386c4.607,0,8.343,3.734,8.343,8.341c0,0.501-0.054,0.986-0.135,1.465
			c1.329,0.735,2.508,1.71,3.484,2.859c0.5-1.349,0.787-2.8,0.787-4.323c0-6.893-5.585-12.479-12.476-12.478
			c-3.967-0.001-7.494,1.854-9.778,4.74c1.406,0.415,2.738,1.01,3.965,1.762C403.727,124.289,405.773,123.386,408.034,123.386z"/>
		<path fill="#FFD042" d="M408.034,114.99c1.15,0,2.08-0.932,2.08-2.081v-4.162c0-1.147-0.93-2.079-2.08-2.08
			c-1.149,0.001-2.081,0.933-2.081,2.08v4.162C405.955,114.057,406.887,114.988,408.034,114.99z"/>
	</g>
	<path fill="#FFFFFF" d="M384.137,148.127c-1.901-2.188-3.057-5.042-3.057-8.169c0-6.896,5.587-12.484,12.482-12.484
		c0.912,0,1.795,0.109,2.649,0.293c1.382,0.303,2.675,0.83,3.841,1.547c2.805,1.723,4.88,4.522,5.647,7.824
		c1.301-0.843,2.846-1.346,4.507-1.346c1.571,0,3.036,0.446,4.291,1.203c1.201,0.726,2.201,1.737,2.905,2.953
		c0.713,1.228,1.128,2.649,1.128,4.17c0,0.59-0.064,1.164-0.184,1.721h4.211c0.076-0.562,0.131-1.137,0.131-1.721
		c0-3.077-1.116-5.892-2.963-8.067c-0.977-1.15-2.155-2.125-3.484-2.86c-1.791-0.99-3.847-1.557-6.035-1.557
		c-0.724,0-1.425,0.093-2.116,0.215c-1.397-2.504-3.426-4.606-5.866-6.098c-1.228-0.751-2.559-1.347-3.965-1.761
		c-1.491-0.438-3.064-0.677-4.695-0.677c-9.195,0-16.646,7.451-16.646,16.645c0,2.971,0.786,5.757,2.153,8.169H384.137z"/>
</g>
</svg>
